<svg width="40" height="40" viewBox="0 0 40 40" fill="none" xmlns="http://www.w3.org/2000/svg">
<g clip-path="url(#clip0_1999_21354)">
<path d="M2.84375 20.0009C2.84375 26.7913 6.78898 32.6605 12.5132 35.4424L4.32803 13.0193C3.3776 15.1516 2.84375 17.5138 2.84375 20.0009ZM31.582 19.1338C31.582 17.0139 30.8214 15.545 30.1672 14.4032C29.2985 12.9884 28.4823 11.7942 28.4823 10.3793C28.4823 8.80402 29.6781 7.33517 31.3629 7.33517C31.4385 7.33517 31.5111 7.34442 31.5867 7.34751C28.5332 4.55021 24.4661 2.84375 20.0009 2.84375C14.0067 2.84375 8.73305 5.91877 5.66574 10.5784C6.06844 10.5907 6.44799 10.5984 6.77046 10.5984C8.56487 10.5984 11.3421 10.3793 11.3421 10.3793C12.2663 10.3253 12.3759 11.6846 11.4517 11.7942C11.4517 11.7942 10.5213 11.9022 9.48907 11.9562L15.7363 30.5406L19.4918 19.2804L16.8194 11.9562C15.8952 11.9022 15.0189 11.7942 15.0189 11.7942C14.0931 11.7386 14.2027 10.3238 15.1269 10.3793C15.1269 10.3793 17.9597 10.5984 19.6445 10.5984C21.4389 10.5984 24.2177 10.3793 24.2177 10.3793C25.1435 10.3253 25.2515 11.6846 24.3273 11.7942C24.3273 11.7942 23.3953 11.9022 22.3647 11.9562L28.5641 30.3986L30.2767 24.6806C31.1469 22.4511 31.582 20.6042 31.582 19.1338ZM20.3018 21.5022L15.1531 36.4592C16.6914 36.9112 18.3161 37.1581 20.0009 37.1581C21.9975 37.1581 23.9153 36.8125 25.6989 36.1861C25.6542 36.112 25.611 36.0333 25.5755 35.95L20.3018 21.5022ZM35.0551 11.7695C35.1307 12.3157 35.1708 12.902 35.1708 13.5346C35.1708 15.275 34.8438 17.2314 33.8655 19.6785L28.6258 34.8299C33.7267 31.8551 37.1566 26.33 37.1566 20.0009C37.1566 17.0169 36.3944 14.2119 35.0551 11.7695Z" fill="url(#paint0_linear_1999_21354)"/>
<path d="M0 19.9992C0 31.0264 8.97203 40 19.9992 40C31.0295 40 40 31.0264 40 19.9992C40 8.97203 31.0295 0 20.0008 0C8.97204 0 0 8.97049 0 19.9992ZM0.91649 19.9992C0.91649 9.47811 9.47657 0.91649 19.9992 0.91649C30.5219 0.91649 39.0835 9.47811 39.0835 19.9992C39.0835 30.5203 30.5219 39.082 20.0008 39.082C9.47965 39.082 0.91649 30.5203 0.91649 19.9992Z" fill="url(#paint1_linear_1999_21354)"/>
</g>
<defs>
<linearGradient id="paint0_linear_1999_21354" x1="20.0002" y1="2.84375" x2="20.0002" y2="37.1581" gradientUnits="userSpaceOnUse">
<stop offset="0.197115" stop-color="#7093FF"/>
<stop offset="1" stop-color="#834BD2"/>
</linearGradient>
<linearGradient id="paint1_linear_1999_21354" x1="20" y1="0" x2="20" y2="40" gradientUnits="userSpaceOnUse">
<stop offset="0.197115" stop-color="#7093FF"/>
<stop offset="1" stop-color="#834BD2"/>
</linearGradient>
<clipPath id="clip0_1999_21354">
<rect width="40" height="40" fill="white"/>
</clipPath>
</defs>
</svg>
