<svg width="40" height="40" viewBox="0 0 40 40" fill="none" xmlns="http://www.w3.org/2000/svg">
<path d="M0 10.1055V29.8921H20.2167L40 10.1055H0ZM5.44 13.7855H5.44833C6.88667 13.7871 8.64 14.1938 9.90833 14.8405L8.54167 17.2238C7.15 16.5505 6.45 16.4871 5.65833 16.4455C4.47833 16.3821 3.885 16.8038 3.87667 17.2588C3.865 17.8121 4.99167 18.3138 6.05167 18.6555C7.65833 19.1655 9.70167 19.8471 10.0133 21.8221L12.95 14.0605H16.36L19.8 23.3538L19.7883 14.0621H23.7383C27.5 14.0621 29.2683 15.3355 29.2683 18.2605C29.2683 20.8855 27.4517 22.4505 24.375 22.4505H23.1033L23.0867 25.9405L17.1067 25.9355L16.69 24.4221C16.0733 24.6255 15.3783 24.7371 14.64 24.7371C13.88 24.7371 13.165 24.6188 12.535 24.4038L11.9383 25.9355L8.605 25.9455L8.755 25.1755C8.70667 25.2171 8.66 25.2588 8.61 25.2988C7.71833 26.0155 6.59667 26.3471 5.215 26.3721L4.86 26.3755C3.35144 26.3908 1.86624 26.0024 0.558333 25.2505L1.775 22.8371C3.09167 23.6155 3.91833 23.7905 5.035 23.7671C5.61333 23.7555 6.03167 23.6505 6.30333 23.3688C6.46327 23.2031 6.55594 22.984 6.56333 22.7538C6.575 22.1271 5.68 21.8321 4.58833 21.4938C3.70333 21.2205 2.69667 20.8455 1.91167 20.2688C0.98 19.5855 0.536667 18.7288 0.558333 17.5188C0.563994 16.6606 0.902126 15.8379 1.50167 15.2238C2.36667 14.3288 3.76333 13.7855 5.44 13.7855ZM23.1017 16.5688V19.7421H23.97C25.1267 19.7421 26.0483 19.3588 26.05 18.1355C26.05 16.9538 25.1267 16.5688 23.97 16.5688H23.1017ZM14.6233 17.8471L13.3767 21.7838C13.7483 21.9255 14.1783 22.0055 14.6383 22.0055C15.085 22.0055 15.505 21.9271 15.875 21.7955L14.6483 17.8455L14.6233 17.8471Z" fill="url(#paint0_linear_1999_21359)"/>
<defs>
<linearGradient id="paint0_linear_1999_21359" x1="6.5" y1="14" x2="20" y2="29.8921" gradientUnits="userSpaceOnUse">
<stop offset="0.177885" stop-color="#7093FF"/>
<stop offset="1" stop-color="#834BD2"/>
</linearGradient>
</defs>
</svg>
